<?xml version="1.0" encoding="utf-8"?>
<!-- Generator: Adobe Illustrator 23.0.3, SVG Export Plug-In . SVG Version: 6.00 Build 0)  -->
<svg version="1.1" id="Layer_1" xmlns="http://www.w3.org/2000/svg" xmlns:xlink="http://www.w3.org/1999/xlink" x="0px" y="0px"
	 viewBox="0 0 20.4 20.4" style="enable-background:new 0 0 20.4 20.4;" xml:space="preserve">
<style type="text/css">
	.st0{fill:#FFFFFF;}
</style>
<path class="st0" d="M20.2,10.2c0,5.5-4.5,10-10,10c-5.5,0-10-4.5-10-10c0-5.5,4.5-10,10-10C15.7,0.2,20.2,4.6,20.2,10.2z M9,15.5
	L16.4,8c0.3-0.3,0.3-0.7,0-0.9l-0.9-0.9c-0.3-0.3-0.7-0.3-0.9,0l-6.1,6.1L5.7,9.4c-0.3-0.3-0.7-0.3-0.9,0l-0.9,0.9
	c-0.3,0.3-0.3,0.7,0,0.9l4.2,4.2C8.4,15.7,8.8,15.7,9,15.5z"/>
</svg>
